<?xml version="1.0" standalone="no"?>
<!DOCTYPE svg PUBLIC "-//W3C//DTD SVG 20010904//EN"
 "http://www.w3.org/TR/2001/REC-SVG-20010904/DTD/svg10.dtd">
<svg version="1.0" xmlns="http://www.w3.org/2000/svg"
 width="1024.000000pt" height="1024.000000pt" viewBox="0 0 1024.000000 1024.000000"
 preserveAspectRatio="xMidYMid meet">
<metadata>
Created by potrace 1.11, written by Peter Selinger 2001-2013
</metadata>
<g transform="translate(0.000000,1024.000000) scale(0.100000,-0.100000)"
fill="#000000" stroke="none">
<path d="M2972 8679 c-158 -31 -302 -165 -352 -327 -20 -63 -20 -97 -20 -1852
0 -1723 1 -1790 19 -1849 26 -85 60 -137 130 -204 69 -66 160 -113 247 -127
35 -6 430 -10 959 -10 l900 0 -61 -34 c-229 -123 -405 -352 -503 -654 -63
-191 -75 -277 -75 -512 1 -221 14 -313 70 -493 78 -245 237 -480 410 -603 521
-372 1150 9 1306 791 30 145 32 458 4 605 -21 117 -82 303 -131 401 -106 212
-272 390 -439 470 l-48 24 938 5 939 5 60 24 c133 53 218 133 279 261 l31 65
0 1835 0 1835 -37 78 c-66 137 -196 241 -337 267 -67 12 -4226 12 -4289 -1z
m4298 -279 c24 -14 58 -45 75 -68 l30 -44 3 -1771 2 -1771 -25 -52 c-16 -33
-40 -62 -67 -80 l-41 -29 -2106 -3 c-1410 -2 -2118 1 -2141 7 -45 13 -97 64
-121 116 -18 38 -19 117 -19 1796 l0 1755 26 53 c28 56 79 98 136 111 18 5
971 7 2118 7 l2085 -2 45 -25z m-2045 -4315 c222 -58 418 -304 500 -629 131
-515 -60 -1106 -410 -1273 -194 -92 -378 -52 -546 117 -406 409 -391 1276 27
1659 133 121 280 164 429 126z"/>
<path d="M3781 7569 c-56 -11 -124 -51 -155 -92 -25 -33 -48 -99 -41 -120 2
-7 6 -24 9 -40 9 -37 70 -104 120 -129 57 -29 178 -36 242 -14 l48 16 169
-167 c93 -93 211 -214 261 -269 80 -87 95 -110 109 -161 38 -136 58 -348 77
-823 11 -286 25 -452 41 -515 15 -53 64 -98 134 -119 63 -20 152 -19 493 5
302 21 485 -10 540 -91 21 -31 23 -42 17 -93 -6 -54 -4 -59 24 -87 81 -82 151
5 151 189 0 118 -32 176 -120 219 -50 24 -67 27 -190 30 -102 3 -182 -2 -315
-19 -106 -13 -236 -23 -315 -23 -125 -1 -139 1 -185 24 -81 41 -82 46 -94 355
-19 468 -41 716 -82 900 -40 179 -82 239 -377 537 l-225 227 -1 58 c-2 97 -67
168 -183 198 -63 16 -86 17 -152 4z"/>
<path d="M5795 7366 c-173 -80 -172 -274 0 -355 168 -79 384 22 385 180 0 66
-47 134 -119 171 -72 38 -190 40 -266 4z"/>
</g>
</svg>
