<?xml version="1.0" standalone="no"?>
<!DOCTYPE svg PUBLIC "-//W3C//DTD SVG 20010904//EN"
 "http://www.w3.org/TR/2001/REC-SVG-20010904/DTD/svg10.dtd">
<svg version="1.0" xmlns="http://www.w3.org/2000/svg"
 width="1080.000000pt" height="1080.000000pt" viewBox="0 0 1080.000000 1080.000000"
 preserveAspectRatio="xMidYMid meet">
<metadata>
Created by potrace 1.11, written by Peter Selinger 2001-2013
</metadata>
<g transform="translate(0.000000,1080.000000) scale(0.100000,-0.100000)"
fill="#000000" stroke="none">
<path d="M0 8053 l0 -2748 83 -17 c45 -10 132 -32 192 -49 61 -17 120 -33 133
-36 24 -6 29 8 10 29 -7 7 -20 26 -28 43 -8 16 -37 52 -64 80 -86 88 -87 96
-40 202 8 17 14 38 14 46 0 8 7 28 15 43 8 16 15 42 15 57 0 16 5 27 13 26 42
-5 49 14 18 50 -11 12 -23 41 -26 64 -4 23 -16 63 -26 88 -10 26 -19 72 -20
104 -1 31 -8 67 -15 80 -12 23 -9 45 11 110 3 11 1 41 -5 65 -7 25 -13 67 -15
94 -2 27 -8 53 -14 59 -17 17 -14 47 4 41 8 -4 15 -1 15 5 0 6 -4 11 -10 11
-5 0 -10 7 -10 16 0 9 -7 28 -15 42 -17 32 -35 166 -24 184 13 21 69 -136 69
-192 0 -11 6 -20 14 -20 19 0 41 -66 37 -112 -1 -23 2 -38 8 -38 6 0 11 6 11
14 0 8 4 17 8 20 4 2 8 -33 7 -79 0 -90 10 -113 39 -92 15 11 18 29 18 125 0
62 3 112 7 112 16 0 32 -52 21 -65 -11 -14 5 -33 17 -21 8 7 5 84 -3 97 -3 5
0 9 7 9 8 0 8 4 -1 15 -13 16 -5 85 11 96 5 3 10 31 10 62 2 70 14 82 29 27 8
-30 8 -50 0 -76 -6 -19 -9 -40 -6 -47 3 -7 7 -3 11 11 4 12 12 22 18 22 9 0 5
-69 -9 -130 l-5 -25 15 25 15 25 1 -27 c0 -15 -8 -49 -19 -75 -10 -26 -21 -61
-25 -78 l-7 -30 30 35 c17 19 30 43 31 53 0 9 4 17 9 17 5 0 11 9 14 21 4 14
2 19 -8 15 -10 -4 -11 2 -5 25 5 18 5 41 -1 55 -6 16 -5 32 1 44 7 13 6 20 -1
22 -11 4 -15 146 -4 157 4 3 21 6 38 7 17 1 33 6 35 12 1 5 9 18 17 28 12 16
14 16 15 3 0 -9 -9 -27 -20 -39 -23 -27 -53 -90 -64 -135 -7 -30 -7 -30 9 -8
9 13 21 37 27 55 15 44 27 58 50 58 16 0 19 -5 14 -22 -3 -13 -6 -33 -6 -45 0
-12 -10 -31 -22 -43 l-22 -20 26 0 c15 0 29 7 32 16 9 23 19 11 23 -28 2 -18
8 -35 14 -39 6 -3 8 -16 5 -27 -4 -11 -2 -23 3 -27 6 -3 8 -19 6 -35 -3 -17
-7 -44 -10 -62 -5 -30 -5 -31 14 -14 19 17 19 17 10 -21 -11 -48 -11 -53 -1
-53 7 0 20 21 40 64 3 5 0 6 -7 2 -7 -4 -11 0 -11 13 0 30 11 51 26 51 18 0
29 47 16 63 -13 16 -5 58 15 73 11 10 10 12 -7 17 -24 6 -26 20 -6 40 11 11
12 17 3 26 -9 9 -8 14 3 21 11 7 20 4 31 -12 11 -14 18 -17 23 -9 4 6 11 9 16
6 4 -3 11 2 14 11 9 24 8 27 -13 21 -12 -3 -22 1 -25 10 -9 23 -7 26 9 13 13
-11 15 -9 13 10 -3 19 8 29 69 59 39 20 80 44 90 52 23 19 69 39 92 39 9 0 27
9 39 20 12 11 26 20 33 20 6 0 9 6 6 14 -7 17 33 56 58 56 10 0 15 3 12 7 -12
11 45 43 62 34 23 -12 151 -20 151 -10 0 5 -10 9 -22 9 -13 0 -30 5 -38 10
-12 8 -10 10 8 10 15 0 26 7 29 18 4 17 39 31 128 53 21 6 15 7 -20 4 -123
-11 -156 -17 -151 -31 3 -8 1 -14 -5 -14 -6 0 -9 10 -7 23 2 18 9 22 40 22 26
0 34 3 27 11 -15 18 8 22 86 16 114 -8 134 -8 135 3 1 6 -9 12 -22 15 -20 5
-21 7 -5 13 10 4 15 11 12 17 -4 6 7 10 26 10 46 0 33 7 -26 14 -66 8 -87 15
-79 28 4 5 21 7 39 4 20 -4 43 -1 61 9 16 8 38 15 49 15 19 1 19 1 2 11 -10 6
-34 8 -53 5 -20 -4 -34 -3 -34 3 0 5 -10 11 -22 14 -23 3 -22 4 2 10 14 3 43
9 65 13 35 6 37 8 16 13 -14 4 -25 15 -27 28 -3 16 3 22 29 29 31 8 30 8 -18
12 -34 2 -53 -1 -60 -11 -11 -15 -75 -31 -75 -19 0 4 14 15 30 24 36 20 41 43
8 32 -13 -4 -37 -6 -54 -6 -19 1 -38 -6 -48 -17 -17 -18 -16 -19 11 -18 36 2
43 -14 13 -30 -26 -13 -61 2 -53 22 8 22 -40 26 -62 6 -11 -10 -38 -24 -60
-31 -44 -14 -68 -30 -44 -30 10 -1 9 -4 -5 -11 -14 -9 -20 -8 -27 2 -7 11 -9
11 -9 -2 0 -18 -37 -33 -45 -19 -3 5 3 14 14 19 17 9 68 91 56 91 -2 0 -19
-13 -37 -28 -18 -15 -46 -36 -62 -46 l-30 -19 23 38 c28 48 19 57 -20 19 -30
-28 -31 -28 -45 -10 -14 19 -14 19 -44 -2 -34 -26 -36 -23 -14 21 l15 32 -24
-26 c-13 -15 -34 -30 -45 -33 -20 -7 -21 -4 -16 23 7 32 -11 45 -22 16 -9 -23
-23 -18 -17 6 4 15 0 22 -15 26 -14 3 -19 10 -14 21 5 13 -1 12 -31 -6 -28
-16 -37 -18 -37 -7 0 7 4 15 10 17 6 2 2 29 -9 68 -16 54 -34 190 -25 190 8 0
35 -71 30 -79 -3 -5 5 -18 19 -29 14 -11 25 -27 25 -36 0 -9 5 -16 11 -16 6 0
9 6 6 13 -2 6 0 20 5 29 6 12 2 31 -13 60 -21 42 -41 108 -33 108 3 0 16 -7
29 -16 37 -24 33 4 -5 41 -30 28 -39 55 -20 55 16 0 12 26 -11 75 -25 53 -20
71 7 26 10 -17 22 -31 26 -31 13 0 9 13 -12 40 -11 14 -20 37 -20 53 0 15 -4
27 -10 27 -5 0 -10 15 -10 33 0 18 -6 39 -12 46 -10 11 -10 14 -1 18 8 3 13
22 13 44 0 28 4 39 15 39 11 0 13 8 8 33 -3 17 -9 39 -13 47 -4 8 -10 33 -14
55 l-6 40 14 -32 c20 -44 33 -41 41 7 4 22 11 40 16 40 5 0 9 -4 9 -10 0 -5 5
-10 11 -10 7 0 8 14 4 40 -6 37 -5 40 15 40 21 0 22 3 14 43 -4 23 -7 60 -6
82 3 82 3 101 -3 124 -5 20 -3 23 14 18 18 -4 21 0 21 29 0 19 5 34 10 34 15
0 12 36 -4 50 -12 9 -13 17 -3 38 18 44 28 54 42 42 17 -14 32 7 16 23 -7 7
-6 14 6 22 13 10 20 8 35 -7 10 -10 18 -27 18 -39 0 -11 4 -17 10 -14 7 5 9
-7 6 -34 -3 -22 -1 -43 5 -46 5 -4 9 27 9 75 0 55 5 93 16 116 l17 35 30 -24
c17 -13 44 -49 59 -80 16 -31 35 -57 42 -57 11 0 52 -59 149 -216 100 -161
173 -265 185 -262 4 1 17 -3 29 -10 18 -10 22 -10 19 0 -3 7 -7 27 -10 45 -4
27 -3 31 12 27 9 -3 2 8 -15 23 -41 36 -44 57 -7 43 14 -6 27 -10 29 -10 9 0
-19 56 -38 75 -19 20 -19 20 -15 -12 5 -36 -7 -43 -28 -15 -16 21 -18 49 -3
54 6 2 -3 19 -20 37 -34 37 -38 46 -16 37 10 -4 15 1 15 14 0 11 4 20 8 20 14
0 32 -48 25 -67 -5 -13 -2 -15 11 -10 12 5 24 0 37 -15 10 -13 18 -19 19 -13
0 5 15 -22 33 -60 26 -54 31 -71 20 -73 -8 -2 -12 -10 -9 -19 3 -8 6 -17 6
-19 0 -3 12 -9 26 -14 18 -7 24 -15 19 -29 -3 -10 1 -23 9 -30 12 -10 17 -8
25 8 9 15 6 32 -9 75 -12 30 -28 60 -36 67 -10 8 -13 21 -8 43 3 17 8 33 10
35 7 8 74 -74 74 -91 0 -9 5 -20 10 -23 7 -4 9 3 4 22 -17 77 -27 108 -40 128
-8 12 -11 24 -8 27 3 3 -4 26 -16 50 l-21 43 40 -45 c21 -25 39 -49 38 -54 -1
-4 6 -10 16 -11 24 -4 22 3 -17 58 -19 27 -38 61 -41 76 -3 15 -30 59 -60 98
-37 49 -65 102 -90 166 -40 109 -41 113 -18 135 15 15 16 15 11 1 -4 -9 2 -29
12 -44 11 -16 22 -46 25 -66 4 -20 15 -45 26 -55 10 -9 19 -22 19 -28 0 -7 15
-35 33 -63 59 -94 57 -91 47 -58 -19 65 -28 105 -24 105 3 0 10 -14 16 -31 6
-18 16 -28 23 -25 14 5 85 -58 85 -74 0 -6 4 -10 10 -10 5 0 7 14 4 33 -5 28
-4 30 8 15 7 -9 18 -25 25 -35 11 -17 12 -17 12 4 1 20 2 20 30 -8 39 -38 56
-38 36 0 -8 17 -19 32 -23 35 -5 3 -19 37 -32 75 -24 70 -24 71 -5 85 27 21
42 20 49 -2 4 -11 18 -30 32 -43 22 -21 24 -21 18 -4 -4 11 -12 26 -17 33 -7
9 -7 16 0 20 11 8 9 63 -2 83 -6 8 -4 10 4 4 8 -4 6 5 -4 25 -10 19 -15 44
-12 59 3 15 2 33 -3 41 -5 8 -6 18 -3 24 4 5 22 -8 41 -30 l34 -39 -5 37 c-3
20 -2 39 1 43 14 13 29 140 20 158 -5 10 -8 35 -6 55 l3 37 14 -27 c8 -16 17
-28 20 -28 16 0 29 65 24 111 -5 41 -3 52 12 63 13 9 15 15 7 20 -17 10 -15
46 2 52 8 3 17 16 20 30 8 31 26 31 26 0 0 -14 5 -28 12 -32 8 -5 9 2 5 24 -4
19 -2 32 3 32 6 0 10 16 10 35 0 24 5 35 15 35 8 0 15 7 15 15 0 9 20 35 45
58 25 24 45 51 45 61 0 10 6 16 13 13 6 -2 11 -10 9 -16 -3 -18 15 -13 24 7 4
9 8 40 8 67 1 47 3 50 29 53 24 3 28 7 25 30 -2 21 1 27 17 28 11 1 36 3 55 4
l35 2 -37 12 c-47 14 -65 31 -43 40 10 4 14 2 9 -5 -4 -7 -1 -10 7 -7 7 2 14
21 16 44 1 23 9 44 20 52 16 12 17 14 2 25 -14 10 -14 17 -4 47 l13 35 11 -28
c6 -16 11 -35 11 -43 0 -8 4 -14 8 -14 12 0 13 128 1 136 -9 5 -6 37 7 87 3 9
10 17 16 17 5 0 7 -7 4 -16 -3 -8 -2 -12 4 -9 6 3 10 -5 10 -19 0 -14 -4 -26
-10 -26 -18 0 -10 -18 11 -23 18 -5 20 -11 16 -56 -5 -47 4 -73 17 -52 3 5 8
60 11 122 4 65 11 120 18 128 9 12 9 13 0 7 -9 -5 -13 0 -13 13 0 28 6 26 35
-6 16 -18 25 -41 25 -63 0 -19 7 -53 15 -75 14 -39 14 -38 10 47 -4 74 -2 89
14 110 l20 23 9 -25 c5 -14 8 -28 6 -31 -2 -4 12 -9 32 -11 33 -4 35 -2 29 19
-8 33 3 47 23 31 14 -11 15 -10 9 12 -4 14 -10 35 -13 48 -7 24 10 31 20 7 11
-29 28 -16 21 16 -12 54 12 24 34 -44 25 -74 71 -159 88 -165 21 -6 15 24 -12
64 -29 42 -31 56 -10 48 19 -8 19 15 1 39 -14 18 -14 18 -20 0 -3 -10 -4 -6
-2 9 2 15 -1 29 -6 30 -6 2 -11 16 -11 31 l-2 27 -1547 0 -1548 0 0 -2747z
m2736 2579 c-12 -11 -18 7 -10 30 l8 23 4 -23 c2 -13 1 -26 -2 -30z m-1313
-1200 c-2 -6 6 -16 17 -22 11 -6 18 -15 15 -21 -4 -5 1 -23 9 -41 9 -17 16
-36 16 -43 0 -7 7 -25 15 -41 19 -38 55 -155 46 -150 -17 11 -93 183 -112 256
-7 25 -16 49 -21 55 -12 14 -10 27 5 22 6 -2 11 -9 10 -15z m721 -141 c-6 -7
-43 39 -44 54 0 6 11 -3 25 -19 14 -16 23 -32 19 -35z m-799 0 c3 -5 1 -12 -5
-16 -5 -3 -10 1 -10 9 0 18 6 21 15 7z m178 -31 c3 -11 1 -18 -4 -14 -5 3 -9
12 -9 20 0 20 7 17 13 -6z m-85 -143 c26 -68 27 -81 9 -70 -40 24 -75 80 -82
133 l-7 55 30 -30 c16 -16 39 -56 50 -88z m672 -47 c0 -5 -4 -10 -10 -10 -5 0
-10 5 -10 10 0 6 5 10 10 10 6 0 10 -4 10 -10z m-660 -71 c0 -6 -4 -7 -10 -4
-5 3 -10 11 -10 16 0 6 5 7 10 4 6 -3 10 -11 10 -16z m50 -81 c0 -17 -4 -27
-10 -23 -5 3 -10 15 -10 26 0 10 -4 19 -10 19 -5 0 -10 12 -10 28 l1 27 19
-24 c11 -13 20 -36 20 -53z m84 -65 c11 -21 29 -48 39 -60 21 -24 17 -53 -7
-53 -9 0 -20 16 -26 38 -11 40 -29 69 -45 70 -5 0 -13 10 -17 23 -7 18 -6 20
6 10 12 -10 13 -8 8 11 -4 19 -3 21 9 11 8 -6 23 -29 33 -50z m184 -122 c23
-41 30 -87 11 -76 -9 6 -59 106 -59 119 0 16 30 -10 48 -43z m-1240 -1117 c48
-109 75 -204 68 -246 -3 -18 2 -44 10 -61 9 -16 13 -31 10 -34 -6 -6 -37 61
-34 74 0 5 -6 24 -15 43 -9 19 -16 29 -17 23 0 -20 -18 -15 -30 8 -14 26 -6
36 15 19 21 -17 19 -5 -11 81 -24 70 -53 173 -54 194 0 20 19 -14 58 -101z
m-328 14 c0 -5 -7 -3 -15 6 -8 8 -15 18 -15 22 0 3 7 1 15 -6 8 -7 15 -17 15
-22z m30 -53 c16 5 25 -6 50 -55 17 -34 29 -67 27 -73 -2 -7 2 -16 9 -22 8 -5
21 -39 29 -75 9 -36 20 -74 24 -85 27 -63 55 -217 47 -250 -4 -16 -1 -34 9
-48 18 -26 20 -100 3 -127 -7 -10 -8 -23 -4 -27 5 -4 11 -2 13 5 20 55 25
-156 7 -243 l-7 -30 -19 45 c-19 42 -21 43 -29 23 -10 -28 -17 -68 -18 -113
-1 -31 -3 -33 -13 -16 -6 11 -11 38 -10 60 0 23 -2 35 -5 29 -11 -29 -19 -10
-18 45 1 31 -3 74 -9 95 l-10 39 -14 -27 -14 -27 -17 28 c-45 75 -61 137 -64
254 -4 112 -5 116 -34 147 -18 19 -29 41 -28 55 1 13 -2 39 -6 57 -11 49 0 59
29 25 l24 -29 -7 30 c-3 17 -15 39 -26 51 -10 11 -19 24 -19 30 0 5 7 0 15
-10 22 -29 27 -14 14 38 -6 25 -9 52 -6 60 4 9 2 18 -3 21 -6 4 -10 15 -10 26
0 11 4 18 9 14 16 -10 21 11 13 57 -12 63 -5 76 25 44 17 -18 31 -25 43 -21z
m262 -22 c12 -27 23 -51 25 -55 2 -5 0 -8 -4 -8 -9 0 -53 83 -53 100 0 21 11
8 32 -37z m-32 -209 c0 -8 -4 -12 -10 -9 -5 3 -10 13 -10 21 0 8 5 12 10 9 6
-3 10 -13 10 -21z m100 -27 c0 -5 -4 -5 -10 -2 -5 3 -10 14 -10 23 0 15 2 15
10 2 5 -8 10 -19 10 -23z m70 -7 c0 -13 -1 -13 -10 0 -5 8 -10 22 -10 30 0 13
1 13 10 0 5 -8 10 -22 10 -30z m850 30 c-20 -13 -33 -13 -25 0 3 6 14 10 23
10 15 0 15 -2 2 -10z m-1010 -46 c0 -8 -4 -12 -10 -9 -5 3 -10 13 -10 21 0 8
5 12 10 9 6 -3 10 -13 10 -21z m115 -44 l5 -35 -14 30 c-18 35 -21 64 -6 49 5
-5 12 -25 15 -44z m-58 -42 c-11 -7 -8 -9 9 -7 9 1 24 -23 24 -40 0 -11 -4 -9
-16 5 -15 18 -15 18 -11 -6 2 -14 8 -34 12 -45 4 -12 0 -9 -12 8 -13 18 -20
46 -21 80 -2 48 -1 50 13 33 12 -16 12 -22 2 -28z m1148 -18 c3 -5 3 -10 -2
-10 -4 0 -18 -3 -29 -6 -14 -4 -23 0 -27 10 -5 12 0 16 23 16 16 0 32 -4 35
-10z m2 -36 c-3 -3 -12 -4 -19 -1 -8 3 -5 6 6 6 11 1 17 -2 13 -5z m-1100 -66
c-3 -8 -6 -5 -6 6 -1 11 2 17 5 13 3 -3 4 -12 1 -19z m-403 -4 c9 -24 4 -24
-18 -3 -16 16 -17 19 -4 19 9 0 19 -7 22 -16z m1246 6 c0 -5 -7 -10 -16 -10
-8 0 -12 5 -9 10 3 6 10 10 16 10 5 0 9 -4 9 -10z m10 -60 c-20 -13 -53 -13
-45 0 3 6 18 10 33 10 21 0 24 -2 12 -10z m-856 -69 c-7 -7 -12 3 -19 34 l-6
30 14 -30 c8 -16 13 -32 11 -34z m58 -22 c-1 -24 2 -38 8 -34 15 9 12 -38 -4
-60 -12 -17 -14 -16 -22 11 -11 38 -12 114 -2 108 4 -3 8 3 8 12 0 10 3 14 7
11 3 -4 6 -25 5 -48z m-50 -75 c3 -43 3 -85 -1 -93 -5 -7 -11 23 -15 68 -3 44
-9 88 -13 97 -4 12 -2 15 8 12 10 -3 16 -29 21 -84z m-63 38 c0 -24 -1 -25 -9
-7 -12 28 -12 47 0 40 6 -3 10 -18 9 -33z m18 -104 c-3 -8 -6 -5 -6 6 -1 11 2
17 5 13 3 -3 4 -12 1 -19z m-40 -25 c-3 -10 -5 -4 -5 12 0 17 2 24 5 18 2 -7
2 -21 0 -30z m405 15 c-7 -7 -12 -8 -12 -2 0 14 12 26 19 19 2 -3 -1 -11 -7
-17z m-62 -44 c0 -8 -4 -12 -10 -9 -5 3 -10 13 -10 21 0 8 5 12 10 9 6 -3 10
-13 10 -21z m5 -54 c-3 -5 -11 -10 -16 -10 -6 0 -7 5 -4 10 3 6 11 10 16 10 6
0 7 -4 4 -10z m-108 -22 c-3 -8 -6 -5 -6 6 -1 11 2 17 5 13 3 -3 4 -12 1 -19z
m22 -40 c0 -7 -4 -22 -9 -33 -7 -17 -9 -15 -9 13 -1 17 4 32 9 32 6 0 10 -6 9
-12z m-362 -60 c-3 -7 -5 -2 -5 12 0 14 2 19 5 13 2 -7 2 -19 0 -25z m15 -60
c-10 -22 -11 -21 -11 12 -1 26 2 31 11 22 8 -8 8 -17 0 -34z m-12 -68 c0 -16
-4 -30 -10 -30 -11 0 -14 43 -3 53 11 12 13 8 13 -23z m0 -101 c0 -11 -4 -17
-10 -14 -5 3 -10 15 -10 26 0 11 5 17 10 14 6 -3 10 -15 10 -26z m-180 -697
c0 -14 2 -14 9 -3 5 8 14 10 21 6 14 -9 9 -64 -11 -110 l-12 -30 -6 34 c-5 31
-7 33 -20 18 -25 -31 -34 -19 -27 35 8 54 22 82 37 72 5 -3 9 -13 9 -22z"/>
<path d="M346 7045 c9 -39 13 -47 25 -40 13 9 11 17 -11 45 l-21 25 7 -30z"/>
<path d="M421 6624 c0 -11 3 -14 6 -6 3 7 2 16 -1 19 -3 4 -6 -2 -5 -13z"/>
<path d="M4560 10787 c14 -6 28 -16 32 -22 3 -5 23 -28 45 -51 52 -57 98 -122
117 -168 13 -31 20 -37 37 -33 14 4 23 -1 31 -18 5 -12 27 -30 49 -38 l38 -15
6 30 c4 16 13 32 21 35 8 3 14 11 14 19 0 17 31 19 47 3 7 -7 20 -9 30 -5 11
5 13 10 7 14 -17 11 -36 51 -29 62 11 17 29 11 74 -25 46 -37 56 -41 66 -26 3
5 -7 17 -22 26 -16 9 -36 27 -45 40 -17 22 -16 23 8 23 14 0 31 -9 37 -19 14
-23 34 -25 39 -4 5 26 57 -28 64 -66 6 -31 27 -59 45 -59 4 0 1 12 -7 28 -17
33 -18 47 -1 60 9 8 24 6 55 -8 23 -11 42 -17 42 -14 0 3 9 0 20 -6 14 -8 26
-8 41 1 18 9 26 6 53 -19 17 -16 39 -32 50 -36 10 -3 16 -12 13 -20 -6 -16 26
-50 36 -39 26 26 112 2 104 -28 -3 -10 2 -20 10 -23 25 -10 35 -7 29 9 -6 16
12 20 29 7 6 -4 16 -19 24 -34 7 -14 22 -29 33 -31 10 -3 24 -19 31 -36 13
-37 26 -41 20 -7 -7 36 26 44 54 12 12 -14 27 -26 34 -26 6 0 19 -8 28 -18 9
-10 37 -24 63 -31 26 -7 55 -22 64 -32 21 -23 34 -24 34 -4 0 8 5 15 10 15 6
0 10 -4 10 -9 0 -5 10 -13 23 -17 12 -3 45 -28 74 -55 28 -27 59 -49 67 -49 8
0 36 -27 62 -60 25 -33 51 -57 56 -54 5 3 15 1 22 -5 11 -9 18 -8 31 5 14 15
20 15 37 5 14 -9 23 -9 27 -3 9 14 71 -16 71 -34 0 -8 11 -16 25 -20 14 -3 25
-14 26 -23 0 -11 2 -12 6 -3 4 10 17 2 44 -24 38 -37 39 -37 54 -18 8 10 15
14 15 7 0 -7 7 -10 15 -7 8 4 15 1 15 -5 0 -6 15 -19 34 -28 19 -9 40 -26 47
-39 7 -13 15 -24 18 -24 12 0 78 -66 103 -103 14 -20 40 -54 59 -75 43 -47
171 -202 184 -223 26 -43 97 -129 105 -129 6 0 10 -4 10 -10 0 -5 7 -18 16
-27 27 -30 103 -138 104 -146 0 -12 54 -91 67 -100 7 -4 13 -13 13 -18 0 -9
33 -57 68 -99 36 -43 60 -78 73 -107 7 -18 23 -34 35 -37 12 -3 24 -15 27 -27
4 -13 11 -19 19 -16 15 5 58 -49 62 -77 3 -18 26 -45 26 -30 0 5 -9 43 -21 84
-18 65 -19 80 -8 114 11 34 11 40 -4 51 -9 7 -17 18 -17 25 0 14 -7 41 -34
125 -9 28 -16 59 -16 69 0 11 -8 28 -17 39 -10 11 -12 17 -6 13 9 -5 11 -2 7
8 -3 9 -10 13 -15 10 -5 -3 -9 4 -9 15 0 23 17 31 47 20 17 -6 21 -5 16 6 -3
9 1 15 11 15 9 0 16 -7 16 -15 0 -8 6 -12 14 -9 8 3 12 12 9 21 -4 11 -1 14
13 11 10 -2 18 -10 16 -17 -1 -7 5 -11 16 -9 27 4 73 -52 65 -81 -3 -12 -2
-21 3 -20 24 6 44 -15 44 -46 0 -21 6 -35 16 -39 12 -5 14 -1 9 15 -5 16 -3
20 6 16 8 -2 13 -10 11 -17 -4 -19 29 -50 54 -50 13 0 26 -5 29 -10 4 -6 11
-8 16 -5 5 4 12 -1 15 -9 4 -10 18 -16 35 -16 17 0 29 -5 29 -12 0 -7 11 0 24
16 22 28 25 66 5 66 -28 0 -62 31 -49 44 6 6 10 19 11 30 0 12 3 15 6 9 2 -7
8 -13 13 -13 13 0 18 38 7 49 -8 8 -7 11 5 11 17 0 33 -43 18 -48 -16 -6 2
-63 27 -88 13 -13 28 -22 33 -19 11 7 33 -22 25 -35 -3 -5 -15 -10 -26 -10
-13 0 -19 -7 -19 -22 0 -21 -1 -21 -13 -3 -11 14 -16 15 -22 5 -9 -14 14 -32
33 -25 7 3 23 -4 34 -15 l22 -20 -23 -22 c-22 -19 -22 -22 -7 -33 9 -7 16 -18
16 -25 0 -7 8 -10 20 -7 23 6 26 -3 8 -21 -16 -16 -28 -15 -28 3 0 9 -9 15
-21 15 -14 0 -19 -5 -16 -14 4 -10 -1 -12 -16 -9 -22 5 -22 5 -2 -10 11 -9 32
-17 48 -17 30 0 35 -11 12 -30 -8 -7 -15 -18 -15 -24 0 -16 -37 -46 -56 -46
-8 0 -12 -5 -9 -11 4 -5 19 -8 34 -4 22 5 27 2 27 -13 0 -14 -6 -18 -21 -15
-11 3 -16 1 -10 -4 6 -4 15 -18 22 -29 10 -19 10 -21 -8 -17 -15 4 -18 2 -13
-11 3 -9 10 -16 15 -16 14 0 11 -58 -3 -64 -10 -3 -8 -9 5 -19 10 -9 15 -21
11 -31 -4 -11 -1 -16 14 -16 12 0 22 -9 25 -21 3 -12 10 -18 15 -15 5 3 9 -2
8 -11 0 -10 11 -23 27 -31 19 -9 26 -19 23 -29 -4 -9 1 -17 13 -20 16 -4 19
-12 16 -44 -2 -21 1 -39 6 -39 5 0 9 -8 9 -18 0 -10 5 -23 11 -29 6 -6 10 -32
7 -57 -2 -36 0 -45 10 -41 8 3 16 5 18 5 2 0 4 9 4 19 0 11 4 22 8 25 5 3 7
-7 4 -23 -2 -17 2 -32 12 -40 14 -11 16 -11 16 3 0 9 4 16 9 16 5 0 16 3 25 6
9 4 16 1 16 -6 0 -6 -9 -14 -19 -17 -11 -3 -22 -11 -25 -18 -4 -10 1 -10 22 1
15 8 39 14 55 14 15 0 27 5 27 11 0 7 10 9 25 7 14 -3 25 -1 25 3 0 17 29 9
40 -11 13 -23 33 -26 49 -6 9 11 9 15 -1 19 -7 3 8 6 34 6 36 1 46 -2 42 -12
-4 -10 7 -14 41 -15 43 0 60 11 33 21 -7 3 2 8 20 12 18 4 35 12 38 16 9 15
22 10 29 -11 7 -22 31 -27 38 -7 5 15 137 14 146 -1 3 -6 13 -10 21 -10 40 3
60 -3 60 -17 0 -8 4 -15 9 -15 4 0 20 -11 34 -24 18 -17 33 -23 48 -19 14 4
20 2 16 -4 -4 -6 6 -16 22 -23 16 -6 32 -21 35 -33 5 -18 8 -19 15 -7 9 12 11
12 16 -2 5 -13 15 -16 38 -12 22 4 28 3 19 -4 -21 -14 1 -18 84 -16 62 2 75 5
100 29 23 21 36 26 62 22 29 -5 103 22 122 44 10 11 40 18 40 9 0 -15 30 -12
46 5 9 8 12 20 8 26 -5 9 2 10 24 6 25 -5 41 0 77 24 35 24 52 29 74 24 19 -4
34 -1 43 9 9 8 31 14 49 14 19 0 62 2 96 4 38 4 63 2 66 -5 2 -6 11 -6 26 3
13 7 39 10 57 7 21 -4 34 -2 34 5 0 6 12 8 30 4 17 -3 50 -1 73 4 23 5 54 12
70 15 l27 5 0 1400 0 1400 -1230 0 c-676 0 -1230 -2 -1230 -5 0 -6 27 -40 55
-70 45 -47 62 -238 27 -301 -9 -17 -27 -50 -40 -73 -12 -22 -26 -41 -31 -41
-17 0 -20 -30 -5 -45 9 -8 12 -15 9 -15 -4 0 0 -11 9 -25 9 -13 16 -33 16 -44
0 -11 5 -23 10 -26 6 -3 10 -15 10 -26 0 -10 4 -19 9 -19 5 0 11 -19 15 -42 4
-23 14 -47 24 -54 16 -12 16 -13 -2 -14 -15 0 -16 -3 -6 -15 7 -9 14 -32 16
-52 3 -37 21 -81 39 -96 6 -5 2 -6 -8 -3 -15 5 -17 2 -12 -14 4 -11 2 -20 -4
-20 -6 0 -11 -7 -11 -16 0 -8 3 -13 8 -11 4 2 18 -6 31 -19 l25 -23 -25 -9
c-13 -6 -27 -8 -31 -5 -5 2 -4 -8 2 -22 7 -18 6 -31 -2 -45 -10 -16 -8 -22 11
-40 l24 -20 -26 0 c-31 0 -43 -16 -27 -34 6 -9 8 -25 3 -43 -4 -15 -6 -34 -5
-40 2 -7 -1 -13 -6 -13 -5 0 -12 14 -15 30 -4 17 -11 30 -16 30 -5 0 -7 -9 -4
-19 3 -13 -2 -23 -16 -31 -12 -6 -19 -15 -16 -21 4 -5 1 -9 -4 -9 -6 0 -11 5
-11 10 0 6 -7 10 -16 10 -10 0 -14 -6 -10 -15 3 -9 -3 -19 -14 -25 -11 -6 -20
-17 -20 -25 0 -8 -4 -15 -9 -15 -16 0 -23 -40 -10 -56 20 -24 2 -27 -21 -4
-13 13 -19 28 -15 38 5 13 3 14 -5 6 -8 -8 -8 -21 4 -47 12 -30 12 -38 1 -47
-17 -14 -55 -4 -55 16 0 19 -19 18 -26 -1 -4 -9 -18 -15 -38 -14 -17 1 -23 3
-14 6 19 5 33 37 23 53 -4 6 -16 10 -28 9 -42 -4 -68 1 -62 11 3 6 0 10 -8 10
-7 0 -23 9 -35 20 -12 11 -25 20 -30 20 -5 0 -17 9 -27 20 -10 11 -23 20 -30
20 -11 0 -65 54 -65 65 0 14 -45 65 -57 65 -8 0 -11 -4 -8 -10 3 -5 -1 -10 -9
-10 -20 0 -20 5 0 35 11 16 12 25 5 25 -6 0 -15 8 -18 18 -4 9 -16 27 -27 39
-53 56 -57 64 -47 77 7 8 5 21 -9 43 -15 25 -16 32 -5 37 8 3 16 0 18 -7 2 -7
7 -9 11 -6 4 4 -4 18 -19 33 -14 14 -24 31 -23 38 3 11 -1 13 -34 17 -10 1 -9
4 1 10 11 7 6 16 -22 41 -21 18 -35 36 -32 40 3 4 -2 10 -10 14 -15 5 -22 28
-7 24 4 -2 8 0 10 5 5 17 1 27 -12 27 -7 0 -20 7 -27 17 -8 9 -37 31 -65 49
-28 18 -70 51 -93 73 -23 22 -50 43 -61 46 -11 4 -20 11 -20 16 0 5 -17 25
-37 45 -25 24 -31 34 -18 29 11 -4 27 -9 35 -12 8 -3 -5 15 -30 38 -59 57
-110 117 -110 129 0 6 11 10 25 10 14 0 25 3 25 8 0 4 -21 26 -47 50 -31 28
-43 45 -35 49 10 4 7 13 -11 36 -43 58 -43 60 -8 55 21 -3 31 0 31 9 0 7 -6
13 -12 13 -13 1 -78 55 -78 65 0 2 6 3 13 1 6 -3 26 -7 42 -11 25 -5 28 -4 17
7 -11 11 -246 13 -1285 15 -973 1 -1266 -1 -1247 -10z m3193 -1181 c4 -10 1
-13 -9 -9 -15 6 -19 23 -5 23 5 0 11 -7 14 -14z m747 -77 c0 -5 -7 -9 -15 -9
-15 0 -20 12 -9 23 8 8 24 -1 24 -14z m-508 -181 c-7 -7 -12 -8 -12 -2 0 14
12 26 19 19 2 -3 -1 -11 -7 -17z m113 -38 c3 -5 -1 -10 -9 -10 -9 0 -16 5 -16
10 0 6 4 10 9 10 6 0 13 -4 16 -10z m179 -42 c-18 -32 -39 -48 -63 -47 -25 1
-24 1 5 10 18 5 34 17 37 29 3 11 10 20 17 20 6 0 8 -6 4 -12z m-104 -22 c-6
-8 -18 -12 -27 -9 -12 5 -12 7 -1 14 7 5 19 9 27 9 11 0 11 -3 1 -14z m30 -96
c0 -5 -4 -10 -10 -10 -5 0 -10 5 -10 10 0 6 5 10 10 10 6 0 10 -4 10 -10z m40
-80 c12 -8 11 -10 -7 -10 -13 0 -23 5 -23 10 0 13 11 13 30 0z m-46 -26 c4
-10 1 -14 -6 -12 -15 5 -23 28 -10 28 5 0 13 -7 16 -16z m-24 -139 c0 -2 -7
-5 -15 -9 -9 -3 -15 0 -15 9 0 9 6 12 15 9 8 -4 15 -7 15 -9z m63 -36 c-8 -8
-16 -8 -30 0 -16 9 -14 10 12 11 21 0 26 -3 18 -11z m137 -159 c0 -5 -2 -10
-4 -10 -3 0 -8 5 -11 10 -3 6 -1 10 4 10 6 0 11 -4 11 -10z m0 -310 c0 -5 -5
-10 -11 -10 -5 0 -7 5 -4 10 3 6 8 10 11 10 2 0 4 -4 4 -10z"/>
<path d="M7080 10756 c0 -2 7 -6 15 -10 8 -3 15 -1 15 4 0 6 -7 10 -15 10 -8
0 -15 -2 -15 -4z"/>
<path d="M5161 10507 c2 -1 15 -11 28 -22 l24 -20 -12 23 c-6 12 -19 22 -28
22 -9 0 -14 -1 -12 -3z"/>
<path d="M3207 10461 c3 -11 11 -25 18 -31 11 -9 12 -7 8 9 -3 11 -11 25 -18
31 -11 9 -12 7 -8 -9z"/>
<path d="M5455 10460 c-4 -6 5 -10 20 -10 15 0 24 4 20 10 -3 6 -12 10 -20 10
-8 0 -17 -4 -20 -10z"/>
<path d="M5567 10413 c-5 -8 30 -73 39 -73 4 0 -23 71 -30 78 -2 2 -6 -1 -9
-5z"/>
<path d="M3240 10401 c0 -6 4 -13 10 -16 6 -3 7 1 4 9 -7 18 -14 21 -14 7z"/>
<path d="M2631 10144 c0 -11 3 -14 6 -6 3 7 2 16 -1 19 -3 4 -6 -2 -5 -13z"/>
<path d="M5268 10053 c7 -3 16 -2 19 1 4 3 -2 6 -13 5 -11 0 -14 -3 -6 -6z"/>
<path d="M5025 10030 c-14 -7 -8 -8 20 -3 22 3 42 7 44 9 9 8 -45 2 -64 -6z"/>
<path d="M5108 9993 c7 -3 16 -2 19 1 4 3 -2 6 -13 5 -11 0 -14 -3 -6 -6z"/>
<path d="M5398 9863 c7 -3 16 -2 19 1 4 3 -2 6 -13 5 -11 0 -14 -3 -6 -6z"/>
<path d="M5250 9852 c-30 -2 -59 -8 -65 -14 -7 -7 10 -9 60 -5 l70 6 -33 -29
c-36 -33 -58 -39 -48 -14 6 14 -1 16 -49 12 -47 -4 -56 -2 -61 14 -4 14 -9 16
-25 8 -10 -6 -44 -12 -74 -13 -31 -1 -54 -6 -53 -12 2 -6 31 -9 71 -7 42 2 67
-1 67 -8 0 -5 -8 -10 -17 -10 -10 0 -31 -7 -46 -15 -15 -8 -43 -17 -63 -21
-19 -3 -36 -10 -39 -14 -9 -15 36 -22 65 -10 49 20 58 5 12 -23 -23 -15 -41
-31 -41 -35 3 -18 -2 -30 -13 -35 -7 -3 -30 -13 -51 -22 -22 -9 -36 -11 -32
-6 3 6 0 11 -8 11 -8 0 -17 -6 -20 -14 -6 -15 -62 -46 -84 -46 -17 0 -17 -20
0 -20 7 0 3 -7 -7 -15 -11 -8 -28 -12 -39 -9 -11 4 -26 -3 -41 -18 -55 -55
-116 -102 -136 -105 -14 -2 -20 1 -17 9 2 7 11 12 19 10 9 -1 22 5 29 15 12
15 12 16 -3 10 -32 -12 -19 11 24 42 28 21 49 29 63 25 18 -5 18 -4 -3 11 -13
9 -32 15 -43 12 -23 -6 -24 1 -2 25 13 15 14 18 2 18 -8 0 -20 -5 -27 -12 -22
-22 -25 1 -3 28 11 14 18 31 14 37 -4 6 -11 3 -20 -8 -7 -11 -13 -14 -13 -8 0
8 -10 9 -31 3 -45 -13 -99 -52 -99 -71 0 -9 -7 -20 -16 -23 -9 -4 -14 -9 -11
-12 3 -4 24 3 46 15 38 19 71 20 71 1 0 -16 -30 -31 -86 -42 -32 -6 -65 -16
-73 -22 -11 -8 -15 -8 -18 2 -6 16 -23 15 -23 -1 0 -8 -18 -22 -40 -32 -22
-10 -40 -22 -40 -27 0 -4 -3 -7 -7 -7 -19 3 -33 -2 -33 -12 0 -6 7 -9 15 -5
13 4 14 2 5 -14 -6 -11 -17 -20 -25 -20 -7 0 -16 -9 -20 -19 -3 -10 -16 -22
-28 -25 -12 -3 -26 -15 -32 -28 -6 -13 -25 -28 -45 -34 -19 -6 -36 -17 -38
-23 -2 -6 0 -11 5 -10 4 1 19 1 32 0 23 -1 23 -2 8 -19 -10 -10 -17 -24 -17
-30 0 -6 -10 -14 -22 -18 -12 -3 -31 -15 -42 -25 -11 -11 -27 -19 -35 -19 -11
0 -12 -3 -4 -8 13 -8 -74 -70 -90 -64 -5 1 -11 -7 -14 -18 -3 -11 -10 -20 -15
-20 -6 0 -8 -7 -4 -15 4 -11 -5 -21 -29 -32 -20 -9 -42 -30 -49 -45 -13 -26
-13 -28 5 -28 28 0 23 -15 -15 -47 -19 -15 -44 -45 -55 -67 l-22 -38 25 6 c21
5 24 3 22 -16 -3 -30 -36 -98 -47 -98 -5 0 -9 -4 -9 -10 0 -5 -10 -20 -21 -31
-16 -16 -18 -23 -9 -29 9 -6 8 -15 -4 -38 -18 -35 -21 -62 -7 -62 11 0 16 16
26 73 4 23 11 37 20 37 17 0 20 -35 5 -45 -5 -3 -10 -11 -10 -16 0 -6 5 -7 10
-4 6 3 10 -5 10 -19 0 -19 -4 -24 -19 -21 -15 3 -20 -3 -23 -28 -2 -18 0 -45
3 -62 l7 -30 1 33 c1 33 15 43 25 17 7 -20 32 -19 40 1 9 23 8 27 -9 21 -24
-10 -28 12 -6 39 21 26 21 26 21 4 0 -19 4 -21 26 -16 26 7 27 6 21 -28 -7
-41 9 -48 23 -11 6 16 15 23 25 19 9 -4 17 1 21 11 4 9 13 14 20 11 8 -3 14 1
14 8 0 8 -7 16 -15 20 -8 3 -15 13 -15 22 0 11 5 14 16 10 9 -3 18 -6 20 -6
13 0 1 -73 -15 -89 -21 -21 -18 -31 11 -31 24 0 23 -17 -2 -32 -14 -9 -18 -19
-13 -38 3 -14 11 -28 17 -32 6 -4 4 -9 -7 -14 -9 -3 -17 -10 -17 -15 0 -14 20
-10 38 8 16 15 17 15 20 0 2 -9 9 -14 16 -11 21 8 6 -59 -17 -75 -17 -12 -18
-15 -3 -23 20 -11 22 -42 2 -35 -10 4 -13 1 -10 -8 3 -7 -12 -31 -35 -54 -43
-43 -45 -51 -7 -26 28 18 69 28 61 14 -4 -5 -13 -9 -21 -9 -8 0 -14 -6 -14
-14 0 -8 -7 -17 -16 -20 -9 -4 -15 -9 -12 -12 3 -3 21 2 39 10 19 8 50 21 69
30 36 15 63 46 90 101 8 17 21 38 29 48 12 14 12 17 0 17 -8 0 -4 6 9 16 12 8
22 24 22 34 0 12 13 26 30 35 25 13 28 18 18 29 -7 8 -17 11 -23 7 -5 -5 -18
-11 -29 -15 -15 -5 -17 -2 -12 17 3 13 2 38 -3 55 -7 24 -6 34 8 46 10 9 23
16 29 16 7 0 9 12 5 34 -3 23 0 42 10 57 10 14 14 32 10 51 -4 20 -1 33 8 39
11 6 11 12 3 27 -10 16 -6 25 29 62 23 24 42 48 43 54 0 6 2 19 2 29 1 9 9 17
17 17 8 0 15 6 15 14 0 7 11 29 24 49 13 19 22 38 19 41 -3 3 0 12 6 20 7 8
10 19 7 24 -8 13 30 45 46 40 7 -3 21 7 30 21 l18 26 1 -40 c1 -35 2 -37 8
-15 5 14 21 46 36 70 19 30 22 40 10 30 -15 -13 -17 -13 -14 -1 3 8 14 19 24
25 29 17 74 56 138 117 59 58 64 61 46 27 -6 -11 -8 -22 -6 -25 3 -2 22 22 42
54 59 92 105 134 92 82 -5 -20 -5 -20 14 -3 10 9 19 23 19 31 0 7 25 40 55 73
30 33 55 64 55 69 0 10 50 45 55 39 5 -4 -29 -48 -68 -90 -21 -22 -25 -33 -17
-38 7 -4 9 -14 6 -21 -4 -8 4 0 18 16 14 17 26 35 26 42 0 7 16 25 35 40 19
15 35 33 35 39 0 20 42 65 55 60 8 -3 19 1 25 9 10 11 4 13 -32 10 l-43 -4 60
57 c33 32 79 69 103 82 23 13 42 27 42 31 0 8 69 53 85 55 5 0 18 2 28 2 29 3
9 22 -23 22 -15 0 -30 3 -32 8 -1 4 -28 6 -58 4z m-30 -87 c9 -10 9 -15 1 -15
-6 0 -11 4 -11 10 0 6 -9 6 -26 0 -32 -13 -91 -13 -78 -1 23 22 97 26 114 6z
m-60 -39 c0 -3 -4 -8 -10 -11 -5 -3 -10 -1 -10 4 0 6 5 11 10 11 6 0 10 -2 10
-4z m-70 -40 c0 -4 -68 -46 -75 -46 -1 0 -6 7 -9 16 -4 12 -2 15 9 10 8 -3 15
-1 15 4 0 5 8 11 18 13 24 7 42 8 42 3z m-74 -98 c-43 -53 -82 -88 -99 -88 -8
0 -8 3 -1 8 6 4 13 14 17 23 3 9 23 30 44 45 21 16 42 35 46 41 4 7 13 13 18
13 6 0 -5 -19 -25 -42z m-110 -33 c-26 -19 -42 -19 -26 0 7 8 20 15 29 15 13
-1 13 -3 -3 -15z m-341 -75 c-3 -5 -13 -10 -21 -10 -8 0 -12 5 -9 10 3 6 13
10 21 10 8 0 12 -4 9 -10z m163 -8 c-10 -2 -18 -8 -18 -13 0 -5 -5 -9 -12 -9
-6 0 -3 8 7 20 10 11 23 16 29 12 7 -4 5 -8 -6 -10z m72 1 c0 -14 -15 -28 -50
-47 -19 -11 -47 -32 -62 -48 -14 -15 -37 -28 -50 -28 -12 0 -32 -7 -42 -15
-11 -8 -24 -15 -29 -15 -15 0 15 31 55 56 21 13 38 33 40 46 3 23 9 25 38 13
9 -3 25 3 36 13 28 26 64 40 64 25z m34 -29 c-19 -15 -19 -16 1 -9 13 4 16 3
10 -3 -16 -15 -55 -25 -55 -13 0 11 39 41 54 41 5 0 1 -7 -10 -16z m66 12 c0
-3 -4 -8 -10 -11 -5 -3 -10 -1 -10 4 0 6 5 11 10 11 6 0 10 -2 10 -4z m-495
-105 c-3 -6 -11 -11 -16 -11 -5 0 -4 6 3 14 14 16 24 13 13 -3z m325 5 c0 -10
-32 -36 -43 -36 -7 0 -1 9 13 20 26 21 30 23 30 16z m-485 -96 c-3 -5 -10 -10
-16 -10 -5 0 -9 5 -9 10 0 6 7 10 16 10 8 0 12 -4 9 -10z m345 -80 c0 -5 -5
-10 -11 -10 -5 0 -7 5 -4 10 3 6 8 10 11 10 2 0 4 -4 4 -10z m-122 -162 c-2
-6 -10 -14 -16 -16 -7 -2 -10 2 -6 12 7 18 28 22 22 4z m-723 -267 c3 -5 1
-12 -5 -16 -5 -3 -10 1 -10 9 0 18 6 21 15 7z m81 -317 c-4 -14 -9 -24 -12
-21 -3 2 -2 17 2 31 3 15 9 25 11 22 3 -3 2 -17 -1 -32z"/>
<path d="M5550 9820 c-8 -5 -10 -10 -5 -10 6 0 17 5 25 10 8 5 11 10 5 10 -5
0 -17 -5 -25 -10z"/>
<path d="M5500 9800 c-13 -8 -13 -10 2 -10 9 0 20 5 23 10 8 13 -5 13 -25 0z"/>
<path d="M2347 9786 c-6 -15 1 -26 15 -26 11 0 10 27 -1 34 -5 3 -11 0 -14 -8z"/>
<path d="M5390 9759 c0 -5 5 -7 10 -4 6 3 10 8 10 11 0 2 -4 4 -10 4 -5 0 -10
-5 -10 -11z"/>
<path d="M4807 9690 c-43 -15 -81 -31 -85 -36 -4 -4 1 -4 11 -1 10 4 41 14 70
22 49 15 113 45 92 44 -5 -1 -45 -14 -88 -29z"/>
<path d="M4628 9693 c-25 -6 -31 -33 -8 -33 28 0 70 18 70 30 0 10 -30 12 -62
3z"/>
<path d="M4905 9670 c-3 -5 1 -10 9 -10 8 0 18 5 21 10 3 6 -1 10 -9 10 -8 0
-18 -4 -21 -10z"/>
<path d="M5228 9656 c-29 -21 -22 -40 7 -19 24 18 32 33 18 33 -5 0 -16 -7
-25 -14z"/>
<path d="M5151 9646 c-7 -8 -23 -17 -36 -20 -14 -4 -25 -11 -25 -17 0 -6 5 -7
13 -2 6 4 23 8 36 8 15 0 26 8 32 23 9 25 -2 30 -20 8z"/>
<path d="M4916 9631 c-3 -4 6 -6 19 -3 14 2 25 6 25 8 0 8 -39 4 -44 -5z"/>
<path d="M4685 9600 c3 -5 11 -10 16 -10 6 0 7 5 4 10 -3 6 -11 10 -16 10 -6
0 -7 -4 -4 -10z"/>
<path d="M4650 9575 c-11 -13 -10 -14 4 -9 9 3 16 10 16 15 0 13 -6 11 -20 -6z"/>
<path d="M4677 9539 c-20 -12 -23 -29 -3 -29 17 0 40 26 29 33 -5 3 -16 1 -26
-4z"/>
<path d="M8360 9500 c0 -5 7 -10 16 -10 8 0 12 5 9 10 -3 6 -10 10 -16 10 -5
0 -9 -4 -9 -10z"/>
<path d="M2230 9416 c0 -8 5 -18 10 -21 6 -3 10 1 10 9 0 8 -4 18 -10 21 -5 3
-10 -1 -10 -9z"/>
<path d="M8190 9333 c0 -5 6 -18 14 -29 17 -22 35 -11 20 13 -12 19 -34 29
-34 16z"/>
<path d="M5926 9205 c-27 -42 -74 -98 -104 -123 -30 -26 -72 -64 -94 -85 -32
-32 -41 -37 -54 -26 -11 9 -18 9 -26 1 -7 -7 -25 -12 -40 -12 -15 0 -28 -4
-28 -10 0 -5 -5 -10 -11 -10 -6 0 -29 -16 -52 -35 -22 -19 -46 -35 -52 -35 -7
0 -24 -10 -38 -22 -28 -24 -44 -37 -177 -143 -47 -38 -95 -79 -106 -92 -12
-12 -24 -23 -27 -23 -3 0 -38 -22 -78 -50 -40 -27 -76 -50 -80 -50 -27 0 -239
-143 -304 -205 -18 -16 -44 -39 -58 -50 -15 -11 -27 -25 -27 -31 0 -6 -6 -17
-14 -23 -8 -7 -26 -36 -40 -66 -18 -38 -33 -56 -50 -61 -13 -3 -34 -17 -47
-30 -20 -21 -21 -24 -5 -24 15 0 16 -3 6 -15 -17 -20 -96 -55 -125 -55 -12 0
-28 -7 -35 -15 -7 -8 -18 -15 -25 -15 -7 0 -15 7 -19 15 -3 8 -13 15 -21 15
-10 0 -13 -5 -9 -12 6 -10 5 -10 -8 -1 -8 7 -17 10 -21 7 -3 -3 -13 6 -22 20
-16 24 -18 24 -41 9 -27 -17 -31 -33 -9 -33 8 0 15 5 15 10 0 6 5 10 11 10 8
0 7 -5 -1 -16 -7 -8 -23 -14 -34 -13 -30 3 -56 -11 -56 -29 0 -12 3 -13 12 -4
7 7 20 12 30 12 15 0 17 -4 10 -17 -11 -22 -5 -43 13 -43 16 0 28 42 14 51
-13 8 -4 14 34 23 26 6 40 -8 16 -16 -13 -4 -23 -68 -11 -68 33 0 134 26 177
45 55 24 88 53 40 35 -15 -6 -33 -10 -42 -10 -13 0 -13 3 -3 15 7 8 21 15 32
15 11 0 39 12 64 26 51 30 78 28 47 -3 -17 -17 -18 -23 -7 -27 9 -4 12 -14 8
-36 -4 -19 -2 -30 5 -30 6 0 11 5 11 10 0 6 19 36 43 67 23 30 51 67 62 82 11
14 29 26 40 26 13 0 27 13 40 37 11 20 27 39 37 41 10 3 25 23 34 46 17 43 37
50 62 21 10 -13 11 -11 6 12 -4 19 0 32 15 47 12 12 21 26 21 31 0 6 5 10 11
10 6 0 24 14 39 30 28 30 63 39 75 20 4 -6 10 -8 15 -5 5 3 11 1 15 -5 3 -5
11 -10 18 -10 8 0 8 3 -1 12 -7 7 -12 27 -12 45 0 42 51 97 81 88 14 -5 19 -2
19 11 0 13 6 15 30 11 26 -6 29 -4 27 16 -1 16 4 23 21 25 12 2 20 8 17 13 -4
5 6 9 20 9 15 0 25 5 24 13 -4 29 3 37 29 37 20 0 33 9 50 34 21 31 27 34 49
25 32 -12 33 -12 26 8 -5 13 -2 15 15 11 19 -5 20 -3 12 12 -13 24 -1 31 56
35 51 3 63 10 46 27 -26 26 -13 38 41 38 61 1 92 19 82 49 -4 12 -2 21 4 21 6
0 11 7 11 15 0 8 17 27 38 42 87 64 182 146 209 181 63 82 84 124 81 159 l-3
35 -49 -77z"/>
<path d="M2135 9190 c3 -5 8 -10 11 -10 2 0 4 5 4 10 0 6 -5 10 -11 10 -5 0
-7 -4 -4 -10z"/>
<path d="M1890 8911 c0 -5 5 -13 10 -16 6 -3 10 -2 10 4 0 5 -4 13 -10 16 -5
3 -10 2 -10 -4z"/>
<path d="M1910 8871 c0 -24 32 -111 41 -111 12 0 12 -3 -11 59 -20 56 -30 73
-30 52z"/>
<path d="M1881 8834 c-1 -12 6 -28 16 -35 15 -13 15 -12 6 6 -6 11 -13 27 -16
35 -4 10 -6 8 -6 -6z"/>
<path d="M2000 8821 c0 -5 5 -13 10 -16 6 -3 10 -2 10 4 0 5 -4 13 -10 16 -5
3 -10 2 -10 -4z"/>
<path d="M8215 8800 c-3 -5 -2 -10 4 -10 5 0 13 5 16 10 3 6 2 10 -4 10 -5 0
-13 -4 -16 -10z"/>
<path d="M8246 8764 c-9 -8 -16 -18 -16 -22 0 -3 5 -1 12 6 7 7 20 12 30 12
10 0 18 5 18 10 0 15 -27 12 -44 -6z"/>
<path d="M8300 8746 c0 -8 -10 -17 -22 -19 -19 -4 -18 -4 5 -6 16 0 26 -5 22
-10 -3 -5 -1 -12 5 -16 6 -4 10 8 10 29 0 20 -4 36 -10 36 -5 0 -10 -6 -10
-14z"/>
<path d="M3607 8667 c-20 -18 -37 -38 -37 -46 0 -7 11 -3 28 13 15 14 38 34
52 45 18 15 21 20 9 21 -8 0 -32 -15 -52 -33z"/>
<path d="M4256 8685 c-11 -8 -16 -18 -12 -22 3 -4 16 3 29 15 24 25 12 29 -17
7z"/>
<path d="M8317 8604 c-4 -4 -7 -14 -7 -23 0 -11 3 -12 11 -4 6 6 10 16 7 23
-2 6 -7 8 -11 4z"/>
<path d="M3576 8515 c-3 -8 -1 -15 4 -15 6 0 10 7 10 15 0 8 -2 15 -4 15 -2 0
-6 -7 -10 -15z"/>
<path d="M7910 8460 c0 -5 5 -10 10 -10 6 0 10 5 10 10 0 6 -4 10 -10 10 -5 0
-10 -4 -10 -10z"/>
<path d="M8280 8460 c0 -5 5 -10 11 -10 5 0 7 5 4 10 -3 6 -8 10 -11 10 -2 0
-4 -4 -4 -10z"/>
<path d="M8290 8400 c0 -5 5 -10 10 -10 6 0 10 5 10 10 0 6 -4 10 -10 10 -5 0
-10 -4 -10 -10z"/>
<path d="M1866 8355 c4 -8 11 -15 16 -15 6 0 5 6 -2 15 -7 8 -14 15 -16 15 -2
0 -1 -7 2 -15z"/>
<path d="M3820 8350 c0 -5 5 -10 10 -10 6 0 10 5 10 10 0 6 -4 10 -10 10 -5 0
-10 -4 -10 -10z"/>
<path d="M3720 8320 c0 -5 5 -10 11 -10 5 0 7 5 4 10 -3 6 -8 10 -11 10 -2 0
-4 -4 -4 -10z"/>
<path d="M3641 8284 c0 -11 3 -14 6 -6 3 7 2 16 -1 19 -3 4 -6 -2 -5 -13z"/>
<path d="M3778 8286 c-19 -14 -24 -36 -9 -36 23 0 71 24 68 34 -5 16 -39 18
-59 2z"/>
<path d="M3604 8176 c-3 -7 -1 -29 4 -47 l10 -34 1 33 c1 18 5 31 10 28 5 -4
7 3 4 14 -6 23 -21 26 -29 6z"/>
<path d="M3593 8040 c-15 -6 -21 -15 -17 -25 9 -21 19 -19 38 10 18 27 14 29
-21 15z"/>
<path d="M4047 7996 c-6 -14 -10 -16 -21 -6 -12 9 -17 7 -25 -9 -14 -26 -14
-34 1 -25 8 5 9 2 4 -12 -5 -10 -11 -28 -14 -38 -5 -20 -5 -20 15 0 26 24 55
82 50 97 -2 6 -6 3 -10 -7z"/>
<path d="M9148 7923 c7 -3 16 -2 19 1 4 3 -2 6 -13 5 -11 0 -14 -3 -6 -6z"/>
<path d="M8640 7870 c0 -5 5 -10 10 -10 6 0 10 5 10 10 0 6 -4 10 -10 10 -5 0
-10 -4 -10 -10z"/>
<path d="M4451 7824 c0 -11 3 -14 6 -6 3 7 2 16 -1 19 -3 4 -6 -2 -5 -13z"/>
<path d="M9780 7750 c0 -5 7 -10 15 -10 8 0 15 5 15 10 0 6 -7 10 -15 10 -8 0
-15 -4 -15 -10z"/>
<path d="M924 7509 c-3 -6 -1 -16 5 -22 8 -8 11 -5 11 11 0 24 -5 28 -16 11z"/>
<path d="M1817 7464 c-12 -12 4 -24 31 -24 26 1 26 1 8 15 -22 17 -30 18 -39
9z"/>
<path d="M1910 7392 c0 -11 86 -52 110 -52 10 0 22 -4 25 -10 3 -5 -2 -10 -11
-10 -10 0 -15 -3 -12 -6 3 -3 21 -1 39 5 19 5 27 10 18 10 -9 1 -22 7 -28 15
-6 8 -24 16 -39 19 -15 2 -44 12 -64 21 -21 9 -38 13 -38 8z"/>
<path d="M1170 7370 c0 -5 5 -10 10 -10 6 0 10 5 10 10 0 6 -4 10 -10 10 -5 0
-10 -4 -10 -10z"/>
<path d="M1884 7371 c7 -11 46 -35 46 -28 0 3 -12 12 -26 22 -15 9 -23 12 -20
6z"/>
<path d="M2470 7350 c0 -5 5 -10 11 -10 5 0 7 5 4 10 -3 6 -8 10 -11 10 -2 0
-4 -4 -4 -10z"/>
<path d="M2620 7286 c0 -2 7 -7 16 -10 8 -3 12 -2 9 4 -6 10 -25 14 -25 6z"/>
<path d="M2077 7269 c7 -7 15 -10 18 -7 3 3 -2 9 -12 12 -14 6 -15 5 -6 -5z"/>
<path d="M1965 7260 c3 -5 11 -10 16 -10 6 0 7 5 4 10 -3 6 -11 10 -16 10 -6
0 -7 -4 -4 -10z"/>
<path d="M1765 7240 c-3 -5 1 -10 10 -10 9 0 13 5 10 10 -3 6 -8 10 -10 10 -2
0 -7 -4 -10 -10z"/>
<path d="M1773 7183 c-24 -9 -13 -24 15 -21 15 2 26 8 25 13 -2 12 -23 16 -40
8z"/>
<path d="M2319 7084 c-12 -15 -11 -16 11 -9 35 10 49 25 23 25 -11 0 -27 -7
-34 -16z"/>
<path d="M2590 7070 c-12 -7 -11 -10 3 -16 17 -6 17 -7 0 -20 -22 -17 -85 -18
-101 -2 -9 9 -12 7 -12 -10 0 -20 5 -22 54 -22 30 0 58 -5 62 -11 3 -6 15 -9
25 -6 11 3 19 0 19 -5 0 -6 12 -8 31 -4 18 3 38 1 45 -5 10 -8 14 -9 14 0 0
16 29 14 46 -3 23 -23 84 0 84 32 0 9 10 26 22 39 17 19 18 23 6 23 -9 0 -19
6 -21 13 -4 9 -8 8 -16 -3 -8 -12 -13 -12 -23 -2 -13 13 -32 17 -24 4 5 -9
-175 -9 -189 0 -6 4 -17 3 -25 -2z"/>
<path d="M2495 7050 c3 -5 10 -10 16 -10 5 0 9 5 9 10 0 6 -7 10 -16 10 -8 0
-12 -4 -9 -10z"/>
<path d="M1348 6983 c6 -2 18 -2 25 0 6 3 1 5 -13 5 -14 0 -19 -2 -12 -5z"/>
<path d="M590 6720 c0 -5 5 -10 11 -10 5 0 7 5 4 10 -3 6 -8 10 -11 10 -2 0
-4 -4 -4 -10z"/>
<path d="M922 6620 c0 -14 2 -19 5 -12 2 6 2 18 0 25 -3 6 -5 1 -5 -13z"/>
<path d="M2558 6620 c-15 -5 -51 -11 -80 -14 -101 -10 -242 -53 -363 -111 -52
-25 -97 -45 -100 -45 -5 0 -62 -35 -190 -118 -158 -103 -305 -247 -360 -355
-15 -29 -33 -59 -39 -67 -19 -23 -72 -122 -83 -156 -11 -31 -10 -32 20 -40 18
-4 43 -6 57 -5 31 3 110 52 110 68 0 6 8 11 18 11 33 -2 117 43 145 77 26 33
26 35 10 63 -16 28 -16 32 7 86 15 38 32 62 49 71 25 12 34 10 126 -35 71 -35
107 -47 125 -43 46 11 267 137 346 199 83 64 87 71 81 151 -8 103 -4 113 47
113 55 -1 76 -18 76 -64 0 -41 9 -45 35 -16 10 12 37 29 59 39 23 10 52 29 66
41 14 12 48 33 75 46 28 13 59 31 70 39 20 16 20 17 1 30 -39 29 -246 52 -308
35z m102 -130 c0 -5 -4 -10 -10 -10 -5 0 -10 5 -10 10 0 6 5 10 10 10 6 0 10
-4 10 -10z m-435 -100 c4 -6 -6 -10 -24 -10 -33 0 -51 18 -30 30 13 9 43 -2
54 -20z"/>
<path d="M480 6561 c0 -12 5 -21 10 -21 6 0 10 6 10 14 0 8 -4 18 -10 21 -5 3
-10 -3 -10 -14z"/>
<path d="M950 6529 c0 -5 5 -7 10 -4 6 3 10 8 10 11 0 2 -4 4 -10 4 -5 0 -10
-5 -10 -11z"/>
<path d="M670 6515 c-7 -8 -8 -15 -2 -15 5 0 15 7 22 15 7 8 8 15 2 15 -5 0
-15 -7 -22 -15z"/>
<path d="M931 6514 c0 -11 3 -14 6 -6 3 7 2 16 -1 19 -3 4 -6 -2 -5 -13z"/>
<path d="M637 6473 c-4 -3 -7 -11 -7 -17 0 -6 5 -5 12 2 6 6 9 14 7 17 -3 3
-9 2 -12 -2z"/>
<path d="M951 6464 c-1 -7 6 -27 14 -45 8 -19 14 -27 14 -19 0 18 -27 79 -28
64z"/>
<path d="M625 6400 c-3 -5 -1 -10 4 -10 6 0 11 5 11 10 0 6 -2 10 -4 10 -3 0
-8 -4 -11 -10z"/>
<path d="M300 6350 c0 -5 5 -10 10 -10 6 0 10 5 10 10 0 6 -4 10 -10 10 -5 0
-10 -4 -10 -10z"/>
<path d="M6227 5948 c-14 -29 -36 -64 -49 -78 -13 -13 -22 -28 -20 -32 1 -5
-9 -8 -23 -8 -13 0 -30 -6 -37 -13 -10 -11 -15 -11 -30 2 -10 8 -18 25 -18 37
0 22 -41 70 -78 92 -30 17 -110 15 -162 -3 -69 -24 -120 -75 -186 -181 -33
-55 -66 -110 -72 -124 -24 -50 -53 -93 -78 -114 -14 -11 -38 -32 -54 -46 -15
-14 -42 -36 -59 -49 -17 -13 -31 -30 -31 -38 0 -11 -8 -13 -32 -9 -18 3 -27 3
-20 0 21 -10 13 -20 -15 -19 -18 0 -31 -7 -38 -21 -6 -12 -16 -28 -23 -36 -9
-11 -9 -17 1 -28 9 -9 9 -11 0 -6 -11 6 -75 -41 -100 -76 -8 -10 -21 -14 -33
-11 -12 3 -26 -1 -33 -9 -7 -8 -38 -21 -71 -27 -135 -29 -266 -98 -324 -170
-30 -37 -62 -115 -62 -151 0 -35 24 -73 55 -86 27 -11 31 -10 45 11 28 42 100
94 154 109 30 9 59 16 64 16 6 0 14 9 17 21 4 11 22 27 41 36 19 9 34 21 34
26 0 5 9 7 20 4 11 -3 20 -1 20 4 0 5 5 9 12 9 6 0 19 7 29 16 12 11 43 18 91
20 40 3 77 9 82 14 6 6 19 10 31 10 22 0 91 22 101 33 4 4 14 7 23 7 15 0 109
74 124 97 4 7 16 13 26 13 10 0 24 7 31 15 7 8 9 15 6 15 -4 0 4 15 18 33 15
19 26 41 26 49 0 9 6 21 14 27 9 7 13 29 12 59 -1 26 2 52 7 59 5 7 3 25 -7
44 -14 29 -14 34 0 58 9 15 30 37 48 49 18 12 55 45 82 72 27 27 54 50 60 50
7 0 25 15 41 33 29 33 36 35 83 15 56 -23 55 -22 55 -97 0 -45 -4 -71 -11 -71
-7 0 -9 11 -7 28 l4 27 -14 -24 c-17 -28 -12 -51 10 -51 8 0 42 26 76 58 34
32 74 69 88 83 54 50 88 112 100 182 18 108 -2 129 -44 45z"/>
<path d="M9093 5529 c-17 -5 -41 -23 -53 -39 -22 -30 -25 -52 -35 -210 -3 -47
-10 -112 -16 -145 -5 -33 -12 -88 -14 -122 -1 -34 -6 -66 -9 -71 -3 -5 -5 -35
-5 -66 1 -32 -1 -60 -5 -63 -3 -3 -1 -13 4 -23 5 -10 6 -21 2 -25 -4 -3 -8
-19 -9 -33 -1 -15 -4 -63 -7 -107 -11 -167 -16 -200 -33 -212 -16 -12 -16 -13
1 -13 14 0 16 -3 7 -13 -6 -8 -10 -38 -9 -68 3 -78 -12 -242 -24 -256 -5 -7
-7 -16 -4 -21 3 -6 -1 -15 -9 -22 -8 -7 -15 -19 -15 -26 0 -8 -6 -14 -14 -14
-18 0 -25 -54 -11 -92 7 -20 4 -48 -9 -102 -11 -41 -16 -84 -13 -96 5 -19 -6
-53 -23 -70 -16 -16 -40 -76 -40 -99 0 -35 -19 -91 -31 -91 -5 0 -9 5 -9 10 0
6 -7 10 -15 10 -9 0 -15 -9 -15 -22 0 -13 -4 -29 -9 -37 -11 -17 -31 -6 -31
16 0 9 -3 14 -6 10 -4 -3 -2 -20 4 -36 9 -24 8 -34 -4 -46 -9 -8 -19 -15 -24
-15 -12 0 -50 -68 -50 -91 0 -11 -7 -22 -16 -26 -8 -3 -13 -12 -9 -21 3 -8 -2
-23 -10 -32 -15 -17 -104 -182 -106 -198 -2 -14 -9 -15 -9 -1 0 7 -7 3 -17
-10 -15 -22 -17 -23 -29 -6 -17 22 -37 9 -30 -20 4 -17 0 -25 -20 -34 -16 -7
-24 -18 -22 -30 2 -11 -10 -29 -29 -45 -18 -15 -33 -34 -33 -42 0 -26 -40
-105 -56 -111 -9 -3 -25 -7 -37 -8 -12 -1 -25 -3 -29 -4 -15 -2 -124 -117
-153 -161 -20 -30 -41 -48 -63 -55 -23 -6 -35 -17 -39 -35 -8 -36 -20 -48 -56
-56 -18 -3 -37 -11 -44 -16 -7 -5 -16 -7 -22 -4 -5 4 -12 -3 -16 -14 -3 -11
-13 -20 -21 -20 -8 0 -14 -6 -14 -12 0 -19 -67 -61 -84 -55 -9 4 -18 2 -22 -4
-4 -7 -10 -6 -18 0 -10 8 -16 4 -24 -14 -7 -15 -20 -25 -32 -25 -11 0 -28 -9
-37 -20 -10 -12 -30 -20 -48 -20 -16 -1 -48 -9 -70 -20 -22 -11 -52 -19 -66
-20 -15 0 -29 -7 -33 -15 -3 -8 -16 -15 -29 -15 -14 0 -36 -9 -50 -20 -14 -11
-54 -27 -89 -36 -34 -9 -87 -29 -117 -45 -29 -16 -57 -27 -61 -24 -3 2 -36 -2
-72 -10 -75 -15 -268 -22 -374 -12 -39 4 -109 16 -155 28 -46 11 -112 27 -147
35 -35 8 -72 19 -83 25 -30 16 -131 48 -152 49 -9 0 -40 11 -69 25 -28 14 -60
25 -69 25 -10 0 -37 8 -61 18 -24 11 -86 29 -138 42 -52 12 -99 27 -104 31 -6
5 -23 9 -38 9 -15 0 -28 5 -28 10 0 6 -9 10 -20 10 -11 0 -20 4 -20 9 0 5 -10
7 -22 3 -12 -3 -19 -1 -15 4 15 26 -12 35 -102 36 -87 1 -93 2 -104 25 -5 12
-18 23 -28 23 -10 0 -21 5 -24 10 -3 6 -19 10 -35 10 -31 0 -75 16 -100 36
-26 20 -121 46 -148 41 -15 -3 -38 1 -52 8 -14 8 -42 14 -62 15 -21 0 -38 4
-38 9 0 4 -26 13 -57 19 -32 6 -78 16 -103 22 -25 6 -63 13 -85 16 -22 4 -44
11 -50 18 -11 12 -92 56 -105 56 -6 0 -89 47 -164 93 -66 40 -326 217 -406
276 -159 117 -406 271 -434 271 -7 0 73 -102 118 -148 17 -18 54 -48 83 -68
28 -19 67 -52 85 -73 18 -20 60 -68 93 -105 68 -77 113 -145 151 -227 16 -34
36 -61 50 -68 14 -6 24 -19 24 -31 0 -12 7 -20 18 -20 38 0 69 -267 35 -301
-6 -6 -9 -18 -6 -26 3 -8 0 -19 -8 -24 -12 -8 -12 -11 1 -19 13 -9 13 -12 -1
-20 -9 -5 -22 -31 -29 -57 -7 -27 -22 -58 -33 -70 -11 -12 -17 -29 -14 -37 6
-14 -26 -33 -45 -28 -5 1 -8 -6 -8 -16 0 -9 -12 -28 -25 -41 -14 -13 -25 -28
-25 -35 0 -6 -18 -21 -40 -34 l-40 -23 0 30 c0 36 -20 82 -31 75 -5 -3 -9 4
-9 15 0 12 5 20 12 18 6 -1 14 7 16 17 3 13 0 17 -10 13 -11 -4 -14 1 -11 17
3 15 -1 25 -12 30 -14 5 -17 2 -13 -19 3 -14 1 -25 -3 -25 -5 0 -9 -14 -9 -31
0 -18 -4 -28 -10 -24 -6 4 -9 19 -7 34 4 24 2 27 -17 24 -40 -6 -56 19 -60 93
-2 38 -6 78 -8 89 -3 11 -8 39 -13 63 -4 23 -9 42 -12 42 -8 0 -52 -56 -53
-67 0 -7 -12 -18 -27 -25 -19 -9 -30 -27 -41 -63 -8 -27 -17 -52 -22 -55 -4
-3 -10 -28 -13 -56 -4 -42 -12 -57 -45 -90 -22 -22 -44 -52 -47 -67 -4 -15
-11 -27 -15 -27 -5 0 -6 -8 -3 -19 3 -10 0 -22 -6 -25 -6 -4 -11 -16 -11 -26
0 -10 -9 -26 -21 -34 -12 -8 -18 -19 -15 -24 3 -5 0 -14 -7 -19 -20 -16 -56
-22 -61 -9 -3 6 -3 -3 0 -21 4 -25 1 -32 -15 -38 -24 -7 -27 -20 -8 -29 6 -3
2 -3 -10 0 -20 5 -23 1 -23 -23 0 -17 -8 -33 -20 -41 -13 -8 -20 -23 -20 -42
0 -17 -6 -33 -14 -36 -8 -3 -18 -19 -21 -35 -4 -16 -10 -29 -14 -29 -10 0 -31
-62 -31 -91 0 -14 -9 -35 -20 -47 -11 -12 -20 -35 -20 -52 0 -16 -4 -30 -9
-30 -5 0 -7 -10 -4 -21 4 -15 0 -27 -13 -36 -13 -9 -18 -23 -16 -46 2 -21 -3
-38 -12 -46 -9 -8 -16 -20 -16 -27 0 -23 -57 -18 -63 6 -3 11 -17 24 -31 30
-14 5 -26 13 -26 16 0 4 3 4 7 1 7 -8 33 11 33 24 0 5 -7 9 -15 9 -8 0 -15 -5
-15 -11 0 -5 -4 -8 -9 -5 -11 7 -26 -88 -16 -104 3 -5 -1 -13 -10 -16 -22 -9
-48 -61 -33 -66 6 -2 13 -21 14 -41 3 -32 0 -37 -17 -37 -14 0 -19 -5 -16 -14
3 -8 -1 -17 -10 -20 -9 -4 -13 -14 -10 -25 2 -11 -4 -43 -14 -72 -18 -54 -16
-97 5 -111 8 -6 7 -8 -1 -8 -6 0 -15 5 -18 10 -12 20 -25 10 -25 -19 0 -38 -9
-61 -24 -61 -6 0 -17 -9 -24 -20 -7 -11 -19 -20 -28 -20 -12 0 -15 -7 -12 -25
3 -14 1 -28 -4 -31 -5 -3 -6 -15 -3 -26 5 -14 1 -21 -14 -25 -18 -4 -18 -7 -6
-20 21 -20 19 -35 -4 -28 -14 4 -21 0 -26 -15 -3 -11 -11 -20 -16 -20 -6 0 -7
-9 -4 -20 5 -16 2 -20 -19 -20 -16 0 -26 -6 -26 -14 0 -17 -25 -27 -53 -21
-12 2 -88 7 -169 10 -81 3 -154 8 -162 11 -8 3 -29 1 -48 -3 -20 -6 -58 -5
-98 1 -42 7 -80 8 -108 2 -33 -8 -50 -6 -78 7 -19 9 -50 17 -69 17 -18 0 -46
5 -61 10 -15 6 -73 13 -128 16 -57 3 -128 14 -163 25 -34 10 -82 19 -107 19
-25 0 -68 9 -96 20 -28 11 -58 20 -66 20 -8 0 -39 11 -67 24 -29 13 -72 27
-97 31 -24 4 -80 27 -123 51 -44 24 -82 44 -85 44 -3 0 -23 15 -46 33 -23 18
-58 43 -78 56 -20 12 -52 36 -71 54 -45 43 -149 105 -206 124 -25 9 -54 20
-63 24 -10 5 -20 9 -23 9 -3 0 -5 -157 -5 -350 l0 -350 5400 0 5400 0 0 2741
c0 1507 -4 2738 -8 2735 -4 -2 -52 -7 -107 -11 -54 -3 -104 -10 -111 -16 -8
-7 -13 -6 -16 1 -3 9 -25 7 -80 -4 -89 -18 -134 -20 -143 -6 -4 7 -12 7 -25 0
-10 -5 -26 -7 -35 -4 -10 4 -21 1 -25 -6 -5 -9 -17 -10 -36 -5 -16 5 -40 8
-54 7 -62 -2 -154 -2 -253 0 -60 2 -111 1 -113 -1 -2 -3 -53 -4 -112 -3 -156
4 -322 32 -427 73 -11 4 -38 12 -60 17 -22 5 -47 12 -55 15 -8 3 -29 1 -47 -4z
m-27 -1119 c1 -22 -2 -40 -7 -40 -10 0 -16 29 -11 58 7 36 17 25 18 -18z m-16
-50 c12 -8 13 -13 3 -30 -17 -26 -16 -35 1 -21 18 15 28 -6 15 -31 -6 -10 -5
-19 1 -23 8 -5 7 -11 0 -20 -7 -8 -9 -23 -5 -35 5 -14 2 -20 -9 -20 -9 0 -16
-8 -16 -17 0 -13 -3 -14 -12 -5 -9 9 -8 16 5 30 22 24 21 31 -4 59 -16 16 -19
26 -11 35 6 7 8 30 5 51 -5 38 1 44 27 27z m-10 -246 c0 -14 3 -14 15 -4 12
10 15 9 15 -5 0 -10 -7 -26 -15 -35 -19 -21 -24 -112 -7 -133 9 -10 10 -17 2
-22 -5 -3 -10 -2 -10 3 0 6 -10 8 -21 5 -19 -5 -20 -3 -11 12 7 13 7 24 -1 36
-6 9 -7 24 -2 35 10 22 15 57 15 97 0 15 4 27 10 27 5 0 10 -7 10 -16z m17
-96 c-3 -7 -5 -2 -5 12 0 14 2 19 5 13 2 -7 2 -19 0 -25z m-30 -140 c-3 -8 -6
-5 -6 6 -1 11 2 17 5 13 3 -3 4 -12 1 -19z m-21 -38 c8 0 14 5 14 11 0 5 5 7
10 4 16 -10 11 -23 -11 -30 -21 -7 -39 8 -38 30 0 6 3 4 6 -2 2 -7 11 -13 19
-13z m-2194 -2401 c15 1 29 -3 33 -9 3 -5 22 -10 41 -10 36 0 58 -25 35 -39
-12 -8 -5 -41 8 -41 4 0 12 12 18 28 10 26 11 26 12 3 1 -16 6 -21 15 -18 8 3
17 -1 20 -9 3 -9 -2 -18 -12 -21 -9 -4 -26 -15 -36 -25 -15 -14 -23 -15 -33
-6 -11 9 -15 7 -20 -10 -4 -17 -13 -22 -37 -22 -18 0 -37 5 -44 12 -7 7 -12 8
-12 2 0 -11 -74 -17 -102 -8 -10 3 -15 11 -11 20 6 17 -28 19 -45 2 -9 -9 -12
-8 -12 5 0 11 -6 17 -17 15 -12 -2 -19 6 -24 27 -5 24 -7 27 -13 13 -6 -13
-11 -15 -21 -5 -10 10 -9 17 6 39 11 14 19 33 19 42 0 9 7 16 15 16 8 0 15 -5
15 -11 0 -6 7 -9 15 -5 8 3 15 1 15 -5 0 -6 5 -7 10 -4 6 4 8 10 5 15 -6 10
69 19 105 12 14 -3 37 -4 52 -3z m-6292 -1069 c0 -5 -4 -10 -10 -10 -5 0 -10
5 -10 10 0 6 5 10 10 10 6 0 10 -4 10 -10z"/>
<path d="M7536 5301 c-3 -4 -19 -6 -36 -3 -18 2 -30 0 -30 -7 0 -6 -11 -11
-25 -11 -14 0 -25 -4 -25 -10 0 -5 -7 -10 -15 -10 -23 0 -84 -34 -85 -47 0 -7
-6 -13 -13 -13 -8 0 -33 -18 -55 -40 -37 -34 -163 -126 -169 -123 -8 4 -43
-11 -43 -18 0 -5 -5 -9 -11 -9 -6 0 -31 -16 -55 -36 -24 -20 -44 -33 -44 -29
0 4 -22 -12 -49 -34 -27 -23 -51 -41 -54 -41 -3 0 -33 -18 -67 -41 -34 -22
-77 -47 -96 -55 -19 -8 -34 -19 -34 -24 0 -6 -13 -24 -30 -42 -16 -17 -30 -37
-30 -45 0 -8 -4 -12 -9 -9 -5 3 -8 -2 -7 -12 1 -11 -6 -17 -19 -17 -14 0 -19
6 -17 20 3 19 3 19 -14 3 -21 -20 -25 -88 -7 -106 21 -21 15 -30 -22 -34 -38
-4 -50 16 -15 25 39 10 14 47 -32 47 -32 0 -58 -32 -58 -72 0 -22 -5 -28 -21
-28 -12 0 -17 -4 -14 -11 4 -6 -2 -20 -13 -32 -21 -23 -25 -55 -10 -73 5 -8 3
-14 -8 -18 -9 -4 -14 -12 -10 -21 7 -18 -31 -94 -48 -96 -6 -1 -18 -3 -26 -4
-8 -1 -23 -3 -32 -4 -10 0 -18 -7 -18 -15 0 -8 -4 -18 -10 -21 -5 -3 -8 0 -5
7 4 9 -5 13 -25 14 -19 1 -29 -3 -27 -10 2 -6 0 -19 -5 -29 -7 -14 -17 -16
-49 -11 -45 8 -59 -3 -59 -44 0 -16 -5 -23 -17 -21 -60 6 -67 -7 -25 -47 20
-20 22 -24 6 -16 -11 6 -30 8 -42 5 -13 -3 -22 -1 -22 6 0 6 -5 11 -11 11 -7
0 -9 -10 -7 -25 4 -18 0 -26 -13 -30 -11 -4 -19 -11 -19 -16 0 -5 -9 -9 -20
-9 -15 0 -20 7 -20 25 0 25 -14 34 -24 16 -3 -5 -14 -7 -24 -4 -12 3 -25 -4
-36 -21 -9 -14 -23 -26 -30 -26 -8 0 -27 -16 -43 -36 -15 -20 -67 -75 -115
-123 -47 -47 -108 -113 -134 -145 -57 -72 -82 -94 -153 -138 -80 -50 -161
-130 -161 -159 0 -14 -4 -29 -9 -34 -14 -15 -23 -78 -12 -94 6 -10 21 -12 55
-7 41 6 52 14 87 59 36 45 49 54 103 69 167 49 167 49 179 76 17 41 47 77 63
77 8 0 20 11 27 25 8 16 21 25 36 25 22 0 71 39 71 56 0 5 11 9 24 9 14 0 33
10 43 23 10 12 34 33 53 47 19 13 40 28 45 32 41 33 73 53 137 85 40 21 75 40
78 43 3 3 19 12 35 20 31 15 38 20 135 82 30 19 80 48 110 64 65 33 150 109
217 191 54 67 183 192 198 193 6 0 19 13 30 30 11 16 35 37 53 47 19 10 38 28
43 40 5 13 31 33 64 48 42 20 54 31 51 43 -9 28 10 44 55 48 30 3 38 1 24 -4
-16 -7 -12 -10 20 -15 21 -4 41 -5 43 -2 2 2 -10 21 -26 41 -33 40 -33 59 1
50 11 -3 33 -2 49 1 22 4 27 10 23 24 -5 14 -1 19 14 19 20 0 26 14 22 48 -2
10 10 13 48 10 43 -4 51 -2 51 12 0 10 12 30 27 46 15 16 28 42 29 57 5 66 74
172 120 183 26 7 69 58 60 73 -7 11 23 38 48 42 11 2 21 9 22 14 4 13 -83 58
-90 46z m-1116 -826 c0 -2 -6 -5 -13 -8 -8 -3 -14 1 -14 8 0 7 6 11 14 8 7 -3
13 -6 13 -8z"/>
<path d="M5770 5256 c0 -2 7 -7 16 -10 8 -3 12 -2 9 4 -6 10 -25 14 -25 6z"/>
<path d="M4950 4911 c0 -6 5 -13 10 -16 6 -3 10 1 10 9 0 9 -4 16 -10 16 -5 0
-10 -4 -10 -9z"/>
<path d="M4863 4772 c-12 -4 -55 -38 -95 -76 -40 -38 -86 -77 -101 -86 -33
-20 -29 -25 29 -35 53 -8 91 8 172 74 35 28 68 51 73 51 5 0 9 18 9 40 0 39
-1 40 -32 39 -18 -1 -43 -4 -55 -7z"/>
<path d="M7140 4690 c0 -5 5 -10 11 -10 5 0 7 5 4 10 -3 6 -8 10 -11 10 -2 0
-4 -4 -4 -10z"/>
<path d="M7180 4690 c8 -5 20 -10 25 -10 6 0 3 5 -5 10 -8 5 -19 10 -25 10 -5
0 -3 -5 5 -10z"/>
<path d="M7187 4007 c-13 -18 -43 -42 -65 -52 -23 -11 -45 -28 -49 -37 -17
-35 -292 -261 -363 -298 -36 -19 -70 -53 -70 -70 0 -6 -7 -10 -15 -10 -21 0
-75 -32 -112 -66 -37 -35 -97 -85 -138 -116 -16 -12 -32 -26 -35 -30 -3 -4
-46 -28 -95 -52 -106 -54 -135 -77 -135 -106 0 -18 5 -21 33 -19 18 2 37 1 42
-2 16 -9 65 -3 77 9 7 7 34 12 60 12 36 0 48 4 48 15 0 25 19 17 26 -12 5 -17
3 -28 -4 -31 -7 -2 -12 -9 -12 -14 0 -6 3 -8 7 -5 3 4 12 2 19 -4 15 -12 74
-3 74 11 0 5 -7 7 -15 4 -10 -4 -15 0 -15 10 0 19 28 18 48 -1 21 -20 41 -15
54 12 6 14 19 25 29 25 9 0 31 14 49 30 18 17 39 30 47 30 9 0 21 7 28 16 19
27 62 27 69 1 6 -22 7 -21 21 4 22 41 60 43 103 5 28 -24 34 -26 28 -11 -17
42 -18 54 -3 75 13 19 15 19 28 4 12 -15 14 -15 19 6 5 20 9 16 30 -28 14 -28
28 -51 33 -52 10 0 9 59 -3 99 -7 26 -6 39 4 50 7 9 13 38 13 64 0 46 -1 48
-14 25 l-14 -23 7 25 c3 14 18 37 33 51 14 14 33 35 41 47 8 12 21 22 30 22
35 1 53 27 47 69 -4 31 -2 38 9 34 8 -3 14 -9 14 -15 0 -5 5 -6 11 -2 6 3 8
17 5 30 -6 21 -3 24 19 24 14 0 25 6 25 13 0 14 -45 37 -71 37 -24 0 -29 30
-8 60 9 14 20 36 24 50 4 14 16 34 27 46 10 12 21 33 24 48 7 40 -36 36 -69
-7z m-637 -837 c0 -5 -4 -10 -10 -10 -5 0 -10 5 -10 10 0 6 5 10 10 10 6 0 10
-4 10 -10z"/>
<path d="M5830 4016 c0 -9 5 -16 10 -16 6 0 10 4 10 9 0 6 -4 13 -10 16 -5 3
-10 -1 -10 -9z"/>
<path d="M7247 3843 c-14 -13 -6 -33 13 -33 13 0 20 7 20 20 0 19 -20 27 -33
13z"/>
<path d="M2600 3643 c0 -6 26 -37 58 -69 31 -33 73 -78 92 -100 61 -69 160
-122 257 -138 59 -9 49 8 -40 67 -40 27 -94 66 -122 88 -65 50 -206 146 -228
155 -9 3 -17 2 -17 -3z"/>
<path d="M3120 3286 c0 -2 7 -9 15 -16 9 -7 15 -8 15 -2 0 5 -7 12 -15 16 -8
3 -15 4 -15 2z"/>
<path d="M8 3067 c7 -8 7 -18 2 -27 -6 -8 -10 -40 -10 -71 l0 -56 29 5 c49 7
50 -23 1 -44 -19 -9 -26 -20 -28 -44 -3 -39 16 -37 36 3 9 18 21 27 38 27 15
0 24 6 24 15 0 21 10 19 37 -7 23 -21 27 -17 22 19 0 3 7 10 16 15 14 9 13 13
-9 43 -14 19 -26 37 -26 42 0 4 -16 23 -35 40 -19 18 -35 37 -35 43 0 5 -4 10
-10 10 -5 0 -10 -7 -10 -15 0 -8 -4 -15 -10 -15 -5 0 -10 7 -10 15 0 8 -7 15
-16 15 -12 0 -14 -3 -6 -13z"/>
<path d="M8433 3043 c-15 -5 -17 -23 -4 -23 5 0 11 7 15 15 3 8 4 15 3 14 -1
0 -8 -3 -14 -6z"/>
<path d="M0 2890 c0 -5 7 -10 16 -10 8 0 12 5 9 10 -3 6 -10 10 -16 10 -5 0
-9 -4 -9 -10z"/>
<path d="M170 2851 c0 -17 5 -31 10 -31 6 0 10 11 10 24 0 14 -4 28 -10 31 -6
4 -10 -7 -10 -24z"/>
<path d="M107 2823 c-14 -13 -6 -23 19 -23 22 0 25 2 14 15 -14 16 -23 19 -33
8z"/>
<path d="M36 2805 c-3 -8 -12 -15 -21 -15 -11 0 -15 -12 -15 -49 0 -44 3 -49
25 -55 33 -9 50 1 34 20 -9 11 -8 14 7 14 15 0 16 2 5 9 -20 13 -23 74 -3 66
12 -4 13 -3 2 10 -16 19 -26 19 -34 0z"/>
<path d="M0 2662 c0 -15 13 -22 24 -13 6 5 22 11 36 14 16 3 10 5 -17 6 -24 0
-43 -3 -43 -7z"/>
<path d="M80 2624 c0 -10 -6 -14 -15 -10 -10 4 -15 -1 -15 -14 0 -13 5 -18 15
-14 8 4 15 1 15 -6 0 -6 5 -8 10 -5 6 3 10 1 10 -4 0 -6 12 -11 28 -11 26 1
26 1 8 15 -20 15 -20 15 0 30 10 8 14 15 7 15 -6 0 -15 -4 -18 -10 -10 -17
-25 -11 -25 10 0 11 -4 20 -10 20 -5 0 -10 -7 -10 -16z"/>
<path d="M259 2542 c-4 -29 -11 -58 -17 -64 -8 -8 -9 -5 -5 11 7 28 -14 27
-37 -1 -10 -13 -22 -19 -27 -15 -4 5 2 17 15 27 12 10 22 23 22 29 0 18 -25
12 -40 -9 -10 -14 -26 -20 -52 -20 -32 0 -38 -3 -38 -21 0 -18 2 -20 16 -8 20
16 33 -1 26 -37 -5 -26 11 -32 38 -14 13 8 12 11 -5 24 -15 11 -17 18 -9 26 9
9 15 5 26 -17 12 -25 12 -30 -1 -44 -21 -21 -81 -14 -82 10 0 10 -4 7 -10 -9
-10 -25 3 -104 24 -145 9 -18 11 -17 22 15 14 40 18 41 51 5 31 -34 30 -39 -7
-31 l-31 6 4 -50 c2 -42 0 -50 -14 -50 -10 0 -18 -4 -18 -10 0 -5 4 -10 9 -10
5 0 14 -13 20 -30 5 -16 15 -30 21 -30 6 0 8 -4 5 -10 -3 -5 -1 -10 4 -10 13
0 14 -10 2 -29 -5 -8 -16 -11 -26 -7 -14 5 -15 9 -5 21 10 12 9 16 -4 21 -24
9 -44 -12 -38 -41 2 -15 0 -25 -7 -25 -6 0 -11 -6 -11 -12 0 -7 -18 -30 -40
-51 l-40 -38 2 -209 c2 -133 7 -210 13 -209 10 1 29 35 115 209 29 58 69 134
90 170 21 36 43 83 50 105 7 22 16 48 21 57 5 10 9 42 9 71 0 30 3 57 8 61 8
8 9 27 12 125 1 35 -2 66 -7 70 -12 9 -11 51 1 51 6 0 5 4 -3 9 -17 11 -60
-16 -61 -37 0 -7 4 -11 9 -7 5 3 13 0 16 -6 9 -14 1 -21 -18 -14 -20 8 -29 55
-11 55 8 0 14 8 14 18 0 11 12 22 31 29 25 10 30 16 24 30 -7 17 -15 53 -17
80 -1 9 -5 10 -14 2 -9 -8 -13 -4 -16 13 -2 13 -6 -1 -9 -30z m-157 -167 c0
-5 -5 -11 -11 -13 -6 -2 -11 4 -11 13 0 9 5 15 11 13 6 -2 11 -8 11 -13z m78
-47 c0 -12 -28 -9 -36 3 -3 6 0 15 7 20 13 7 28 -5 29 -23z m18 -102 c-27 -20
-23 -46 7 -46 14 0 25 -4 25 -10 0 -5 -8 -10 -17 -10 -13 0 -14 -3 -5 -12 7
-7 12 -18 12 -25 0 -8 -16 1 -35 20 -25 25 -35 43 -35 66 0 28 3 31 33 31 29
-1 30 -2 15 -14z m62 -10 c0 -3 -4 -8 -10 -11 -5 -3 -10 -1 -10 4 0 6 5 11 10
11 6 0 10 -2 10 -4z m-3 -78 c-3 -8 -6 -5 -6 6 -1 11 2 17 5 13 3 -3 4 -12 1
-19z m-87 -28 c6 -11 8 -20 6 -20 -3 0 -10 9 -16 20 -6 11 -8 20 -6 20 3 0 10
-9 16 -20z"/>
<path d="M7960 2570 c0 -5 5 -10 10 -10 6 0 10 5 10 10 0 6 -4 10 -10 10 -5 0
-10 -4 -10 -10z"/>
<path d="M47 2528 c7 -40 12 -46 21 -31 4 6 25 13 46 15 55 4 60 28 7 28 -23
0 -41 5 -41 10 0 6 -9 10 -20 10 -17 0 -19 -5 -13 -32z"/>
<path d="M50 2460 c0 -5 5 -10 10 -10 6 0 10 5 10 10 0 6 -4 10 -10 10 -5 0
-10 -4 -10 -10z"/>
<path d="M66 2301 c-4 -7 -5 -15 -2 -18 9 -9 19 4 14 18 -4 11 -6 11 -12 0z"/>
<path d="M2700 1345 c0 -8 2 -15 4 -15 2 0 6 7 10 15 3 8 1 15 -4 15 -6 0 -10
-7 -10 -15z"/>
<path d="M2640 1060 c0 -5 5 -10 11 -10 5 0 8 -4 4 -9 -7 -13 12 -24 26 -16 7
5 4 14 -7 26 -19 21 -34 25 -34 9z"/>
<path d="M2596 1051 c-3 -5 1 -12 10 -15 27 -11 37 -7 24 9 -14 17 -26 19 -34
6z"/>
</g>
</svg>
